<svg xmlns="http://www.w3.org/2000/svg" width="1080" height="1080" viewBox="0 0 1080 1080">
  <defs>
    <style>
      .b {
        fill: #ff5252;
        opacity: 0.35;
      }

      .c {
        fill: #ffe169;
      }
    </style>
  </defs>
  <title>Spot Rocket</title>
  <g>
    <circle class="b" cx="540" cy="540" r="534.973"/>
    <circle class="b" cx="540" cy="540" r="478.826"/>
    <circle class="b" cx="540" cy="540" r="391.64"/>
  </g>
  <path class="c" d="M703.973,65.347a11.477,11.477,0,0,0-16.238-5.932C529.693,146.674,422.489,300.9,390.293,472.991,296.956,518.555,245.57,589.249,212.733,679.263a11.472,11.472,0,0,0,11.948,15.35l172.244-17.9,38.207,13.938L408.448,817.107a11.462,11.462,0,0,0,21.319,7.777L490.781,710.96l38.04,13.877L643.813,851.652a11.459,11.459,0,0,0,19.254-3.778C695.461,759,702.023,673.518,661.7,579.514,750.95,426,769.567,236.164,703.973,65.347Zm15.781,189.476L553.64,194.216A567.523,567.523,0,0,1,687.212,86.081,567.923,567.923,0,0,1,719.754,254.823ZM385.68,501.22a589.292,589.292,0,0,0-.969,153.7L240.554,669.905A318.149,318.149,0,0,1,385.68,501.22ZM446.2,638.153l-41.614-15.172c-.772-10.514-1.323-21.016-1.491-31.482l49.182,17.933Zm-38.3,18.155q-1.385-10.392-2.355-20.788l38.273,13.971L439.912,668Zm69.67-55.776,37.068-41.4,1.718,55.549L447.439,743.332Zm80.179,78.313-41.629-15.178,13.859-25.882,49.2,17.938C572.281,663.622,565.1,671.3,557.746,678.845Zm-47.1-4.983,38.284,13.966q-7.443,7.314-15.2,14.394l-32.02-11.672ZM648.034,822.177l-95.96-105.837a588.745,588.745,0,0,0,94.7-112.4A317.986,317.986,0,0,1,648.034,822.177ZM587.02,646.4,535.437,627.57,538,622.8a11.236,11.236,0,0,0,1.356-5.751l-2.68-87.251a11.461,11.461,0,0,0-19.995-7.294l-58.232,65.03a11.337,11.337,0,0,0-2.681,5.268l-1.118,5.286-51.568-18.795c.635-138.884,52.293-272.64,142.375-375.857L720.09,267.144C722.55,404.121,675.947,539.72,587.02,646.4ZM557.3,300.278a74.5,74.5,0,1,0,98.983,36.109A74.589,74.589,0,0,0,557.3,300.278Zm58.038,124.7a63.041,63.041,0,1,1,30.554-83.755A63.116,63.116,0,0,1,615.338,424.979ZM545.209,274.3a103.158,103.158,0,1,0,137.053,50A103.277,103.277,0,0,0,545.209,274.3Zm82.22,176.658a91.7,91.7,0,1,1,44.442-121.825A91.8,91.8,0,0,1,627.429,450.958ZM387.519,982.58l-22.945,14.156a11.461,11.461,0,0,1-16.9-6.166l-8.451-25.6A338.126,338.126,0,0,1,361.742,701.76a11.456,11.456,0,1,1,20.236,10.747A315.136,315.136,0,0,0,360.991,957.77l3.9,11.837,10.588-6.533A315.135,315.135,0,0,0,517.372,761.9a11.46,11.46,0,1,1,22.408,4.818A338.136,338.136,0,0,1,387.519,982.58Zm-4.587-244.662,5.828-16a5.73,5.73,0,0,1,10.766,3.928l-5.828,16a186.582,186.582,0,0,0,3.788,138.419A186.693,186.693,0,0,0,489.529,776.8l5.828-16a5.73,5.73,0,0,1,10.766,3.928l-5.828,16A198.232,198.232,0,0,1,397.083,893.2a5.74,5.74,0,0,1-7.614-2.778A198.063,198.063,0,0,1,382.932,737.917Zm178.554,64.273L517.044,924.016a5.734,5.734,0,0,1-10.777-3.923l44.442-121.825a5.734,5.734,0,0,1,10.777,3.923Zm20.065,15.947-33.331,91.369a5.734,5.734,0,0,1-10.777-3.923l33.331-91.369a5.734,5.734,0,0,1,10.777,3.923Zm16.64,8.59a5.735,5.735,0,0,1,3.419,7.347l-22.221,60.913a5.734,5.734,0,0,1-10.777-3.923l22.221-60.913A5.749,5.749,0,0,1,598.191,826.727ZM281.265,844.112a5.735,5.735,0,0,1-3.419-7.347L322.287,714.94a5.73,5.73,0,0,1,10.766,3.928L288.612,840.693A5.735,5.735,0,0,1,281.265,844.112Zm-14.509-31.175a5.735,5.735,0,0,1-3.419-7.347l33.331-91.369a5.73,5.73,0,1,1,10.766,3.928L274.1,809.518A5.735,5.735,0,0,1,266.755,812.937Zm-14.509-31.175a5.735,5.735,0,0,1-3.419-7.347L271.047,713.5a5.73,5.73,0,1,1,10.766,3.928l-22.221,60.913A5.735,5.735,0,0,1,252.246,781.762Z"/>
</svg>
